<svg id="Layer_1" data-name="Layer 1" xmlns="http://www.w3.org/2000/svg" viewBox="0 0 81 78"><defs><style>.cls-1{fill:#fff7f0;stroke:#fff7f0;}.cls-2,.cls-3{isolation:isolate;}.cls-3{font-size:26px;fill:#080808;font-family:AktivGrotesk-Medium, Aktiv Grotesk;font-weight:500;}</style></defs><g id="Group_800" data-name="Group 800"><path id="Union_1-2" data-name="Union 1-2" class="cls-1" d="M26.5,55.5a3,3,0,0,1-3-3V46.36a.89.89,0,0,1-.48-.13L10.09,39.11a1,1,0,0,1-.39-1.36,1,1,0,0,1,.39-.39L23,30.24a.89.89,0,0,1,.48-.13V22.5a3,3,0,0,1,3-3h38a3,3,0,0,1,3,3v30a3,3,0,0,1-3,3Z"/><g id="Q" class="cls-2"><text class="cls-3" transform="translate(43.5 46.5)">Q</text></g></g></svg>